<svg xmlns="http://www.w3.org/2000/svg" width="140.97" height="30" viewBox="0 0 140.97 30"><g transform="translate(7 -1.392)"><g transform="translate(0 -0.24)"><path d="M5878.152-804.929a7.158,7.158,0,0,1,5.423,2.652,5.8,5.8,0,0,1,1.04,2.251c.1.394-.013.549-.419.634a23.947,23.947,0,0,0-2.576.662c-.476.156-.61,0-.792-.4a3.956,3.956,0,0,0-5.365-1.846,1.728,1.728,0,0,0-1,1.642,1.583,1.583,0,0,0,1.092,1.478c2,.91,4.159,1.384,6.127,2.353a6.087,6.087,0,0,1,3.085,2.654,5.789,5.789,0,0,1-2.681,7.618,8.587,8.587,0,0,1-9.444-.747,6.86,6.86,0,0,1-2.6-4.836c-.046-.333.013-.526.4-.6,1.025-.2,2.05-.4,3.056-.677.459-.124.529.054.595.418a7.48,7.48,0,0,0,.33,1.283c.817,2.189,2.148,2.945,4.45,2.534a5.154,5.154,0,0,0,1.349-.385,1.925,1.925,0,0,0,1.258-1.816,2.094,2.094,0,0,0-1.149-1.987,18.436,18.436,0,0,0-3.994-1.57,12.978,12.978,0,0,1-3.583-1.705c-2.775-1.791-2.7-6.111-.02-8.138C5874.071-804.478,5875.537-804.964,5878.152-804.929Z" transform="translate(-5807.813 808.863)" fill="#2980b9"/><path d="M6194.681-772.108c1.921-1.951,4.046-2.456,6.407-1.446a4.81,4.81,0,0,1,2.982,4.667c.058,3.24.007,6.483.022,9.724,0,.409-.106.545-.523.531-.862-.03-1.727-.036-2.588,0-.468.021-.554-.153-.552-.58.018-2.718.01-5.437.009-8.156,0-.209.008-.419-.009-.626-.154-1.778-1.006-2.687-2.463-2.632-2.087.079-3.1,1.011-3.109,2.9-.012,2.8-.017,5.594.01,8.391,0,.525-.091.737-.668.7-.86-.053-1.726-.035-2.588,0-.421.015-.523-.131-.522-.536q.021-6.94,0-13.88c0-.4.1-.555.524-.539a19.053,19.053,0,0,0,2.273-.006c.648-.053.918.135.8.8A4.756,4.756,0,0,0,6194.681-772.108Z" transform="translate(-6086.714 780.835)" fill="#2980b9"/><path d="M6088.391-771.79c1.1-1.574,2.36-2.2,4.049-1.813.395.089.509.241.431.642-.165.844-.306,1.7-.411,2.549-.047.393-.134.521-.573.456-2.1-.309-3.167.556-3.224,2.713-.071,2.715-.06,5.433-.033,8.149.006.633-.182.8-.784.76-.833-.051-1.672-.027-2.508-.006-.34.009-.445-.092-.445-.439q.016-7.092,0-14.185c0-.37.1-.5.479-.488.783.027,1.57.046,2.351,0,.559-.036.753.145.675.69A8.3,8.3,0,0,0,6088.391-771.79Z" transform="translate(-5992.564 780.536)" fill="#2980b9"/><path d="M5729.938-763.512c0,2.249-.014,4.5.011,6.747.005.49-.092.689-.632.658-.86-.049-1.726-.032-2.588,0-.41.013-.532-.114-.531-.529q.021-6.943,0-13.885c0-.4.1-.554.524-.541.889.027,1.78.033,2.667,0,.459-.018.56.146.557.575C5729.928-768.167,5729.938-765.84,5729.938-763.512Z" transform="translate(-5683.212 778.27)" fill="#2980b9"/><path d="M6150.351-763.571c0,2.249-.016,4.5.013,6.748.006.52-.085.744-.667.706-.834-.054-1.674-.032-2.511-.006-.393.012-.541-.082-.538-.511q.03-6.944.015-13.889c0-.454.144-.572.577-.556.836.032,1.676.038,2.511,0,.481-.023.618.112.612.6C6150.335-768.175,6150.351-765.873,6150.351-763.571Z" transform="translate(-6045.391 778.279)" fill="#2980b9"/><path d="M5728.155-804.555c-1.9,0-1.9,0-1.9-1.889,0-1.565,0-1.57,1.606-1.563.675,0,1.547-.22,1.973.114.453.357.134,1.269.146,1.936.024,1.4.007,1.4-1.428,1.4Z" transform="translate(-5683.26 811.514)" fill="#2980b9"/><path d="M6148.277-807.644c1.776,0,1.776,0,1.775,1.784,0,1.67,0,1.685-1.638,1.664-.669-.009-1.559.3-1.944-.141-.327-.374-.1-1.241-.1-1.89,0-1.416,0-1.416,1.437-1.416Z" transform="translate(-6045.09 811.149)" fill="#2980b9"/><path d="M5439.466-775.64c.25.118.562.064.78.275l-2.216,0C5438.462-775.7,5439.026-775.341,5439.466-775.64Z" transform="translate(-5434.572 783.185)" fill="#2980b9"/><path d="M5627.181-793.419a5.692,5.692,0,0,0,1.3-1.227,4.618,4.618,0,0,0,.316-4.7,5.023,5.023,0,0,0-4.319-3.077c-3-.259-6.01-.048-9.015-.108-.517-.01-.518.242-.517.62q.013,4.823.005,9.645,0,4.509.005,9.018c0,.245-.16.6.355.592,3.238-.081,6.488.25,9.714-.183a5.677,5.677,0,0,0,4.874-4.549C5630.426-790.089,5629.6-791.927,5627.181-793.419Zm-7.771-5.6c1.255.02,2.512-.013,3.767.017a2.113,2.113,0,0,1,2.291,2.229,2.1,2.1,0,0,1-2.3,2.2c-.6.018-1.2,0-1.8,0v0c-.654,0-1.309-.021-1.961.008-.4.018-.549-.082-.538-.512.03-1.15.032-2.3,0-3.451C5618.848-798.969,5619.033-799.026,5619.41-799.02Zm4.614,12.615c-.778.055-1.563.01-2.346.01v.041c-.757,0-1.514-.014-2.27.006-.372.01-.559-.051-.548-.5.031-1.382.022-2.765,0-4.147,0-.366.091-.5.476-.49,1.539.025,3.08-.015,4.618.032a2.3,2.3,0,0,1,2.315,2.353C5626.294-787.408,5625.572-786.513,5624.024-786.4Z" transform="translate(-5587.674 806.861)" fill="#2980b9"/><path d="M6301.024-773.218c-.4-.341-1.287-.121-1.96-.125-1.388-.009-1.388,0-1.589,1.316a10.788,10.788,0,0,0-.914-.827,6.1,6.1,0,0,0-7.366.71c-3.12,2.928-3.065,8.045-1.405,10.862,2.11,3.58,6.937,4.47,9.606,1.489,0,.67,0,1.26,0,1.851a2.808,2.808,0,0,1-3.022,3.116,3.951,3.951,0,0,1-3.792-2.432c-.506.34-.961.643-1.415.95-1.515,1.026-1.53,1.186-.246,2.554.036.038.075.073.112.11a7.39,7.39,0,0,0,5.586,1.993,6.333,6.333,0,0,0,6.533-6.521q0-6.548-.005-13.1C6301.146-771.942,6301.445-772.857,6301.024-773.218Zm-3.594,6.025c-.017.443,0,.888,0,1.332s.005.888,0,1.332a2.95,2.95,0,0,1-1.923,3.012,3.483,3.483,0,0,1-3.778-.7c-1.79-1.628-1.78-6.051.208-7.515a3.5,3.5,0,0,1,3.685-.461A2.9,2.9,0,0,1,6297.43-767.193Z" transform="translate(-6167.279 779.059)" fill="#2980b9"/><path d="M5778.675-772.919c0-.418-.18-.464-.517-.453-.575.019-1.15.005-1.726.005-1.238,0-1.237,0-1.305,1.23,0,.028-.071.052-.112.08a10.528,10.528,0,0,0-.917-.838c-2.105-1.525-5.513-1.076-7.476.861-2.886,2.849-2.992,7.737-1.3,10.681,2.154,3.741,7.049,4.455,9.653,1.5,0,.869.028,1.571-.006,2.269a2.614,2.614,0,0,1-2.024,2.574,3.836,3.836,0,0,1-3.963-1.016c-.359-.362-.465-1.136-.958-1.1-.477.037-.919.545-1.372.853-1.511,1.025-1.526,1.2-.242,2.535.036.038.074.073.112.11a7.552,7.552,0,0,0,6.149,1.939,6.153,6.153,0,0,0,5.959-6.015C5778.731-762.774,5778.659-767.847,5778.675-772.919Zm-3.665,6.965H5775c0,.548.03,1.1-.006,1.645a2.936,2.936,0,0,1-2.022,2.8,3.358,3.358,0,0,1-3.639-.7c-1.9-1.8-1.871-5.78.051-7.455a3.418,3.418,0,0,1,3.732-.583,2.943,2.943,0,0,1,1.9,3.039C5775-766.79,5775.01-766.372,5775.01-765.954Z" transform="translate(-5716.464 779.081)" fill="#2980b9"/><path d="M5992.486-769.223a6.37,6.37,0,0,0-5.208-4.562,5.439,5.439,0,0,0-5.15,1.761,4.231,4.231,0,0,1,0-.611c.122-.663-.15-.858-.8-.8a12.872,12.872,0,0,1-2.039,0c-.538-.037-.7.107-.7.675q.032,9.966,0,19.932c0,.528.1.751.679.71a12.593,12.593,0,0,1,2.2,0c.732.077.846-.211.835-.866-.041-2.261-.016-4.523-.016-6.818.12.048.179.053.205.085,1.99,2.466,6.642,2.175,8.786-.744A9.084,9.084,0,0,0,5992.486-769.223Zm-4.561,7.01a3.371,3.371,0,0,1-3.726.6,2.941,2.941,0,0,1-1.9-2.881c-.014-.5,0-.992,0-1.489,0-.418,0-.836,0-1.254a3.086,3.086,0,0,1,2.085-3.159,3.666,3.666,0,0,1,3.87.989C5989.852-767.6,5989.705-763.833,5987.925-762.214Z" transform="translate(-5901.445 779.134)" fill="#2980b9"/></g><g transform="translate(-7 1.392)"><path d="M24.342,0l-.027.029a1.176,1.176,0,0,1,1.172,1.227V24.269a1.064,1.064,0,0,1-1.08,1.168H8.916L4.693,30V25.409h-3.4A1.188,1.188,0,0,1,0,24.329l0-.061V1.286A1.3,1.3,0,0,1,1.259,0H24.342ZM16.484,4.678H4.693V21.053H15.076a9.349,9.349,0,0,0,2.258-.322,5.539,5.539,0,0,0,1.765-.749l.112-.07a3.538,3.538,0,0,0,1.2-1.189l.058-.1h-.03a3.76,3.76,0,0,0,.44-1.871,4.435,4.435,0,0,0-.793-2.749,4.3,4.3,0,0,0-2.228-1.4,3.662,3.662,0,0,0,1.759-1.579,4.546,4.546,0,0,0,.587-2.193,4.377,4.377,0,0,0-1-2.836,4.051,4.051,0,0,0-1.173-.936A3.021,3.021,0,0,0,16.6,4.68ZM14.8,13.83a1.028,1.028,0,0,1,.82.443,1.635,1.635,0,0,1,.311,1,1.326,1.326,0,0,1-.367.968,1.4,1.4,0,0,1-.832.357l-.072,0H8.921V13.83ZM14.318,8.3a1.144,1.144,0,0,1,.735.276,1.232,1.232,0,0,1,.311.913,1.2,1.2,0,0,1-.326.966L15,10.483a1.46,1.46,0,0,1-.726.3l-.065,0H8.92V8.3Z" fill="#2980b9"/></g></g></svg>