<svg xmlns="http://www.w3.org/2000/svg" width="105.666" height="29.68" viewBox="0 0 105.666 29.68"><g transform="translate(-6 0.21)"><g transform="translate(43.901 7.19)"><path d="M6299.952-202.264a.39.39,0,0,1,.281.126l.737.805a5.931,5.931,0,0,1-2.07,1.542,7.054,7.054,0,0,1-2.933.553,6.909,6.909,0,0,1-2.725-.519,5.974,5.974,0,0,1-2.085-1.455,6.564,6.564,0,0,1-1.338-2.245,8.37,8.37,0,0,1-.476-2.88,7.874,7.874,0,0,1,.51-2.88,6.586,6.586,0,0,1,1.43-2.25,6.4,6.4,0,0,1,2.206-1.459,7.513,7.513,0,0,1,2.836-.519,6.685,6.685,0,0,1,2.643.475,6.677,6.677,0,0,1,1.974,1.29l-.611.863a.663.663,0,0,1-.155.16.425.425,0,0,1-.252.063.489.489,0,0,1-.267-.092c-.094-.062-.206-.137-.334-.228s-.282-.187-.457-.291a3.987,3.987,0,0,0-.62-.291,5.146,5.146,0,0,0-.834-.228,5.8,5.8,0,0,0-1.095-.092,5.292,5.292,0,0,0-2.042.383,4.581,4.581,0,0,0-1.6,1.091,4.962,4.962,0,0,0-1.042,1.726,6.591,6.591,0,0,0-.374,2.279,6.712,6.712,0,0,0,.374,2.318,5.108,5.108,0,0,0,1.019,1.721,4.28,4.28,0,0,0,1.527,1.071,4.882,4.882,0,0,0,1.9.369,7.733,7.733,0,0,0,1.115-.073,4.575,4.575,0,0,0,.917-.228,3.855,3.855,0,0,0,.785-.393,6.058,6.058,0,0,0,.732-.567A.494.494,0,0,1,6299.952-202.264Z" transform="translate(-6289.343 213.678)" fill="#f1c40f"/><path d="M6348.968-214.406v14.284h-1.726v-14.284Z" transform="translate(-6333.22 214.406)" fill="#f1c40f"/><path d="M6368.646-196.628a4.391,4.391,0,0,1,1.63.3,3.669,3.669,0,0,1,1.29.853,3.907,3.907,0,0,1,.849,1.377,5.333,5.333,0,0,1,.3,1.867,1.127,1.127,0,0,1-.087.543.362.362,0,0,1-.33.136h-6.537a5.427,5.427,0,0,0,.252,1.619,3.321,3.321,0,0,0,.641,1.149,2.555,2.555,0,0,0,.97.689,3.328,3.328,0,0,0,1.26.228,3.7,3.7,0,0,0,1.121-.15,5.306,5.306,0,0,0,.809-.325,6.179,6.179,0,0,0,.568-.325.751.751,0,0,1,.392-.15.382.382,0,0,1,.331.165l.484.63a3.267,3.267,0,0,1-.766.674,4.752,4.752,0,0,1-.954.47,6.073,6.073,0,0,1-1.053.276,6.413,6.413,0,0,1-1.076.092,5,5,0,0,1-1.876-.344,4.128,4.128,0,0,1-1.484-1.008,4.649,4.649,0,0,1-.974-1.644,6.691,6.691,0,0,1-.349-2.25,5.716,5.716,0,0,1,.315-1.92,4.514,4.514,0,0,1,.907-1.547,4.164,4.164,0,0,1,1.444-1.028A4.746,4.746,0,0,1,6368.646-196.628Zm.039,1.271a2.648,2.648,0,0,0-1.968.722,3.4,3.4,0,0,0-.893,2h5.344a3.5,3.5,0,0,0-.165-1.1,2.466,2.466,0,0,0-.485-.863,2.174,2.174,0,0,0-.781-.562A2.634,2.634,0,0,0,6368.685-195.357Z" transform="translate(-6345.963 200.934)" fill="#f1c40f"/><path d="M6414.481-186.71h-.767a.905.905,0,0,1-.406-.078.426.426,0,0,1-.2-.33l-.193-.912q-.388.349-.757.626a4.339,4.339,0,0,1-.776.465,3.985,3.985,0,0,1-.867.286,4.983,4.983,0,0,1-1.023.1,3.489,3.489,0,0,1-1.071-.161,2.445,2.445,0,0,1-.868-.482,2.288,2.288,0,0,1-.587-.812,2.847,2.847,0,0,1-.218-1.163,2.17,2.17,0,0,1,.32-1.124,2.809,2.809,0,0,1,1.032-.959,6.728,6.728,0,0,1,1.867-.686,12.7,12.7,0,0,1,2.822-.268v-.771a2.675,2.675,0,0,0-.49-1.742,1.776,1.776,0,0,0-1.45-.59,3.063,3.063,0,0,0-1.062.16,4,4,0,0,0-.747.359q-.315.2-.543.359a.784.784,0,0,1-.45.16.515.515,0,0,1-.306-.092.682.682,0,0,1-.208-.228l-.312-.553a5.615,5.615,0,0,1,1.756-1.173,5.419,5.419,0,0,1,2.085-.388,3.722,3.722,0,0,1,1.464.271,3.01,3.01,0,0,1,1.077.756,3.213,3.213,0,0,1,.658,1.173,4.867,4.867,0,0,1,.224,1.513Zm-4.48-1.057a3.513,3.513,0,0,0,.834-.092,3.265,3.265,0,0,0,.713-.262,3.8,3.8,0,0,0,.641-.412,5.629,5.629,0,0,0,.6-.553v-2.027a11.577,11.577,0,0,0-2.027.151,5.669,5.669,0,0,0-1.357.395,1.891,1.891,0,0,0-.762.576,1.237,1.237,0,0,0-.237.741,1.646,1.646,0,0,0,.126.673,1.26,1.26,0,0,0,.34.463,1.326,1.326,0,0,0,.5.263A2.276,2.276,0,0,0,6410-187.767Z" transform="translate(-6378.311 200.994)" fill="#f1c40f"/><path d="M6449.506-186.71v-9.823h.989a.549.549,0,0,1,.388.107.657.657,0,0,1,.146.369l.116,1.532a4.5,4.5,0,0,1,1.246-1.6,2.753,2.753,0,0,1,1.741-.577,2.738,2.738,0,0,1,.737.092,2.594,2.594,0,0,1,.611.257l-.223,1.29a.292.292,0,0,1-.3.242,1.5,1.5,0,0,1-.417-.092,2.626,2.626,0,0,0-.786-.092,2.221,2.221,0,0,0-1.507.524,3.922,3.922,0,0,0-1.013,1.522v6.255Z" transform="translate(-6410.717 200.994)" fill="#f1c40f"/><path d="M6482.021-200.122v-14.284h1.735v5.877a5.015,5.015,0,0,1,1.4-1.139,3.714,3.714,0,0,1,1.809-.432,3.616,3.616,0,0,1,1.541.32,3.113,3.113,0,0,1,1.174.955,4.614,4.614,0,0,1,.747,1.571,8.023,8.023,0,0,1,.262,2.158,6.764,6.764,0,0,1-.291,2.022,4.859,4.859,0,0,1-.839,1.619,3.945,3.945,0,0,1-1.338,1.076,3.947,3.947,0,0,1-1.78.393,3.278,3.278,0,0,1-1.613-.369,3.672,3.672,0,0,1-1.16-1.028l-.087.892a.415.415,0,0,1-.445.369Zm4.383-8.6a2.783,2.783,0,0,0-1.479.388,4.271,4.271,0,0,0-1.168,1.1v4.752a2.708,2.708,0,0,0,1.032.9,2.989,2.989,0,0,0,1.266.262,2.486,2.486,0,0,0,2.114-.979,4.575,4.575,0,0,0,.737-2.793,6.959,6.959,0,0,0-.17-1.649,3.219,3.219,0,0,0-.49-1.13,1.9,1.9,0,0,0-.785-.645A2.605,2.605,0,0,0,6486.4-208.723Z" transform="translate(-6435.357 214.406)" fill="#f1c40f"/><path d="M6528.368-212.6a1.092,1.092,0,0,1-.1.47,1.378,1.378,0,0,1-.271.388,1.258,1.258,0,0,1-.393.267,1.179,1.179,0,0,1-.476.1,1.132,1.132,0,0,1-.47-.1,1.26,1.26,0,0,1-.388-.267,1.273,1.273,0,0,1-.268-.388,1.148,1.148,0,0,1-.1-.47,1.218,1.218,0,0,1,.1-.48,1.246,1.246,0,0,1,.268-.4,1.268,1.268,0,0,1,.388-.267,1.136,1.136,0,0,1,.47-.1,1.183,1.183,0,0,1,.476.1,1.266,1.266,0,0,1,.393.267,1.342,1.342,0,0,1,.271.4A1.157,1.157,0,0,1,6528.368-212.6Zm-.387,3.084v9.823h-1.728v-9.823Z" transform="translate(-6468.614 213.982)" fill="#f1c40f"/><path d="M6546.928-195.992a2.366,2.366,0,0,1-1.789-.65,2.591,2.591,0,0,1-.626-1.872v-6.012h-1.183a.386.386,0,0,1-.262-.092.359.359,0,0,1-.106-.286v-.688l1.609-.2.4-3.035a.367.367,0,0,1,.126-.238.4.4,0,0,1,.271-.092h.874v3.385h2.813v1.251h-2.812v5.9a1.255,1.255,0,0,0,.3.921,1.049,1.049,0,0,0,.776.3,1.359,1.359,0,0,0,.469-.073,1.984,1.984,0,0,0,.344-.16q.146-.088.247-.16a.327.327,0,0,1,.18-.073.3.3,0,0,1,.243.165l.5.824a3.207,3.207,0,0,1-1.076.655A3.66,3.66,0,0,1,6546.928-195.992Z" transform="translate(-6481.54 210.431)" fill="#f1c40f"/><g transform="translate(-37.901 -7.4)"><path d="M5.819,19.732l5.834-3.274.1-.285-.1-.158h-.285l-.976-.06-3.334-.09-2.891-.12-2.8-.15-.706-.15L0,14.574l.068-.435.593-.4.848.075,1.877.128,2.816.2,2.042.12,3.026.315h.481l.068-.2-.165-.12-.128-.12L8.612,12.163,5.459,10.076l-1.652-1.2-.893-.608L2.463,7.7l-.2-1.246.811-.893,1.089.075.278.075,1.1.848L7.906,8.379l3.078,2.268.45.375.18-.128.023-.09-.2-.338L9.761,7.441,7.974,4.362l-.8-1.276-.21-.766a3.675,3.675,0,0,1-.128-.9L7.764.165,8.274,0,9.505.165l.518.45.766,1.749,1.239,2.756L13.95,8.867l.563,1.111.3,1.029.113.315h.2v-.18l.158-2.11.293-2.59.285-3.334.1-.939.465-1.126.923-.608.721.345.593.848-.083.548-.353,2.29-.691,3.589-.451,2.4h.263l.3-.3,1.216-1.614L20.9,5.992l.9-1.014,1.051-1.119.676-.533h1.276l.939,1.4-.42,1.442L24.011,7.831,22.923,9.243l-1.562,2.1-.976,1.682.09.135.233-.022,3.529-.751,1.907-.345,2.275-.39,1.029.481.113.488-.405,1-2.433.6-2.853.571L19.619,15.8l-.053.038.06.075,1.915.18.818.045h2l3.732.278.976.646.586.788-.1.6-1.5.766-2.027-.481L21.3,17.607,19.679,17.2h-.225v.135l1.352,1.321L23.283,20.9l3.1,2.883.158.713-.4.563L25.723,25,23,22.945l-1.051-.924-2.38-2h-.158v.21l.548.8,2.9,4.355.15,1.336-.21.435-.751.263-.826-.15-1.7-2.38-1.749-2.681-1.412-2.4-.173.1-.833,8.972-.39.458-.9.345-.751-.571-.4-.924.4-1.825.481-2.38.39-1.892.353-2.35.21-.781-.015-.053-.173.022-1.772,2.433L10.091,25,7.959,27.285l-.511.2-.886-.458.083-.818.5-.728,2.951-3.754L11.871,19.4l1.149-1.344-.008-.2h-.068L5.106,22.953l-1.4.18-.6-.563.075-.923.285-.3,2.358-1.622Z" fill="#f1c40f"/></g></g></g></svg>